<?xml version="1.0" encoding="UTF-8" standalone="no"?>
<svg
   xmlns:dc="http://purl.org/dc/elements/1.1/"
   xmlns:cc="http://creativecommons.org/ns#"
   xmlns:rdf="http://www.w3.org/1999/02/22-rdf-syntax-ns#"
   xmlns:svg="http://www.w3.org/2000/svg"
   xmlns="http://www.w3.org/2000/svg"
   xmlns:sodipodi="http://sodipodi.sourceforge.net/DTD/sodipodi-0.dtd"
   xmlns:inkscape="http://www.inkscape.org/namespaces/inkscape"
   version="1.1"
   id="svg10"
   width="208.87785"
   height="217.61719"
   viewBox="0 0 208.87785 217.61719"
   sodipodi:docname="deactivated.svg"
   inkscape:version="1.0.1 (3bc2e813f5, 2020-09-07)">
  <metadata
     id="metadata16">
    <rdf:RDF>
      <cc:Work
         rdf:about="">
        <dc:format>image/svg+xml</dc:format>
        <dc:type
           rdf:resource="http://purl.org/dc/dcmitype/StillImage" />
        <dc:title></dc:title>
      </cc:Work>
    </rdf:RDF>
  </metadata>
  <defs
     id="defs14" />
  <sodipodi:namedview
     pagecolor="#ffffff"
     bordercolor="#666666"
     borderopacity="1"
     objecttolerance="10"
     gridtolerance="10"
     guidetolerance="10"
     inkscape:pageopacity="0"
     inkscape:pageshadow="2"
     inkscape:window-width="1636"
     inkscape:window-height="1000"
     id="namedview12"
     showgrid="false"
     inkscape:zoom="2.2621893"
     inkscape:cx="64.453517"
     inkscape:cy="132.99989"
     inkscape:window-x="-7"
     inkscape:window-y="0"
     inkscape:window-maximized="0"
     inkscape:current-layer="g18"
     fit-margin-top="0"
     fit-margin-left="0"
     fit-margin-right="0"
     fit-margin-bottom="0" />
  <g
     inkscape:groupmode="layer"
     inkscape:label="Image"
     id="g18"
     style="display:inline"
     transform="translate(-25.755859,-19.191406)">
    <path
       id="path276"
       style="fill:#2b0000;stroke:#000000;stroke-width:1px;stroke-linecap:butt;stroke-linejoin:miter;stroke-opacity:1"
       d="M 118.31055,19.691406 A 52.981686,53.294262 0 0 0 65.328125,72.986328 52.981686,53.294262 0 0 0 118.31055,126.28125 52.981686,53.294262 0 0 0 171.29102,72.986328 52.981686,53.294262 0 0 0 118.31055,19.691406 Z M 57.373047,118.1543 a 48.761906,55.326008 0 0 0 -31.095703,50.01172 h -0.02148 v 48.21679 a 22.036631,22.427351 0 0 0 21.88086,19.76953 22.036631,22.427351 0 0 0 1.25,-0.0371 v 0.19336 H 162.19141 l -0.0859,-0.0469 a 3.7457645,3.8985405 18.589417 0 0 0.14258,0.0469 h 2.14257 a 3.7457645,3.8985405 18.589417 0 0 2.3086,-1.92578 3.7457645,3.8985405 18.589417 0 0 -0.41016,-4.34961 l 0.16992,0.0937 a 46.73016,47.042736 0 0 1 -5.48242,-22.10742 46.73016,47.042736 0 0 1 46.56446,-47.04101 48.761906,55.326008 0 0 0 -29.73633,-42.48047 73.768013,73.14286 0 0 1 -59.55078,29.97656 73.768013,73.14286 0 0 1 -59.800785,-30.32031 z m 134.925783,64.83593 c -1.46613,0.0816 -3.10208,0.67444 -4.75977,2.22852 -3.75742,3.97844 -1.43554,8.17773 -1.43554,8.17773 l 13.92382,13.92579 -13.81445,13.8125 c 0,0 -3.75693,4.09008 0.33203,8.62109 4.08896,4.53101 9.17188,1.76758 9.17188,1.76758 l 14.25586,-14.03516 13.70507,13.15039 c 0,0 5.08275,1.76833 8.61915,-2.09961 3.53638,-3.86793 0.88476,-8.0664 0.88476,-8.0664 l -12.92969,-13.37305 12.48633,-13.37109 c 0,0 1.54844,-4.53084 -2.20898,-8.17774 -3.75742,-3.64691 -7.73633,-1.2168 -7.73633,-1.2168 L 210.19531,197.375 197.92773,185.10742 c 0,0 -2.40343,-2.29674 -5.6289,-2.11719 z m -31.24805,52.6836 a 3.7457645,3.8985405 18.589417 0 0 0.0801,0.0586 l -0.0879,-0.0469 z" />
  </g>
</svg>
