<?xml version="1.0" encoding="UTF-8" standalone="no"?>
<svg
   xmlns:dc="http://purl.org/dc/elements/1.1/"
   xmlns:cc="http://creativecommons.org/ns#"
   xmlns:rdf="http://www.w3.org/1999/02/22-rdf-syntax-ns#"
   xmlns:svg="http://www.w3.org/2000/svg"
   xmlns="http://www.w3.org/2000/svg"
   xmlns:sodipodi="http://sodipodi.sourceforge.net/DTD/sodipodi-0.dtd"
   xmlns:inkscape="http://www.inkscape.org/namespaces/inkscape"
   width="28.055"
   height="19.887001"
   viewBox="0 0 7.4228854 5.2617692"
   version="1.1"
   id="svg8"
   inkscape:version="1.0.1 (3bc2e813f5, 2020-09-07)"
   sodipodi:docname="Upload.svg">
  <defs
     id="defs2">
    <pattern
       id="EMFhbasepattern"
       patternUnits="userSpaceOnUse"
       width="6"
       height="6"
       x="0"
       y="0" />
  </defs>
  <sodipodi:namedview
     id="base"
     pagecolor="#ffffff"
     bordercolor="#666666"
     borderopacity="1.0"
     inkscape:pageopacity="0.0"
     inkscape:pageshadow="2"
     inkscape:zoom="11.313709"
     inkscape:cx="4.095186"
     inkscape:cy="12.211492"
     inkscape:document-units="mm"
     inkscape:current-layer="layer2"
     inkscape:document-rotation="0"
     showgrid="false"
     units="px"
     inkscape:window-width="1920"
     inkscape:window-height="1009"
     inkscape:window-x="-8"
     inkscape:window-y="-8"
     inkscape:window-maximized="1"
     fit-margin-top="0"
     fit-margin-left="0"
     fit-margin-right="0"
     fit-margin-bottom="0" />
  <metadata
     id="metadata5">
    <rdf:RDF>
      <cc:Work
         rdf:about="">
        <dc:format>image/svg+xml</dc:format>
        <dc:type
           rdf:resource="http://purl.org/dc/dcmitype/StillImage" />
        <dc:title></dc:title>
      </cc:Work>
    </rdf:RDF>
  </metadata>
  <g
     inkscape:groupmode="layer"
     id="layer2"
     inkscape:label="Icon"
     style="display:inline"
     transform="translate(-0.52189062,-1.602449)">
    <path
       id="rect36"
       style="fill:#000000;stroke-width:1.06973"
       d="M 3.2364839,1.602449 A 2.0212369,2.1705028 0 0 0 1.2546706,3.3465516 1.2206801,1.3622734 0 0 0 0.52189062,4.594554 1.2206801,1.3622734 0 0 0 1.7425016,5.9567625 a 1.2206801,1.3622734 0 0 0 0.06718,-0.00207 H 3.3568913 V 5.9397091 5.4482597 H 1.7657562 v -0.0031 A 0.78755748,0.8950476 0 0 1 1.0340098,4.5526952 0.78755748,0.8950476 0 0 1 1.7228643,3.6648826 1.5219588,1.6436155 0 0 1 3.242685,2.1032002 1.5219588,1.6436155 0 0 1 4.364593,2.636508 1.0933115,1.1517797 0 0 1 4.7625059,2.557442 1.0933115,1.1517797 0 0 1 5.8559912,3.708808 1.0933115,1.1517797 0 0 1 5.8554745,3.732579 1.0845417,0.91206928 0 0 1 6.3613925,3.6271579 1.0845417,0.91206928 0 0 1 7.4460928,4.5392587 1.0845417,0.91206928 0 0 1 6.3613925,5.4513598 a 1.0845417,0.91206928 0 0 1 -0.0031,0 H 5.0286424 v 0.4821474 h 1.3647897 a 1.4802623,1.4030343 0 0 0 0.071315,0.00207 A 1.4802623,1.4030343 0 0 0 7.9447761,4.5325413 1.4802623,1.4030343 0 0 0 6.4647466,3.1295076 1.4802623,1.4030343 0 0 0 6.2554546,3.1434606 1.4630998,1.5102997 0 0 0 4.8513902,2.0566908 1.4630998,1.5102997 0 0 0 4.5191072,2.0959654 2.0212369,2.1705028 0 0 0 3.2364839,1.602449 Z m 0.9405214,1.6205943 a 0.11143949,0.12937476 0 0 0 -0.08475,0.045993 0.11143949,0.12937476 0 0 0 -0.00568,0.00775 l -0.032039,0.043409 h -0.00156 L 3.5222577,4.0426422 3.0178902,4.7247801 2.9972194,4.7640549 a 0.11143969,0.12937455 64.133237 0 0 -0.00723,0.1028371 0.11143969,0.12937455 64.133237 0 0 0.078032,0.055812 0.11143969,0.12937455 64.133237 0 0 0.0093,0.00207 l 0.045476,0.00827 0.6687005,5.169e-4 V 6.7587964 A 0.12441916,0.12441941 0 0 0 3.9020867,6.8642178 H 4.4524469 A 0.12441915,0.1244194 0 0 0 4.5630357,6.7587964 V 4.9351059 l 0.6376942,0.00155 h 0.00155 l 0.054778,-0.00362 a 0.12937458,0.11143966 33.008783 0 0 0.091985,-0.045993 0.12937458,0.11143966 33.008783 0 0 0.00775,-0.096119 0.12937458,0.11143966 33.008783 0 0 -0.00362,-0.0093 L 5.3371542,4.7387331 4.8286525,4.0447094 4.3010302,3.3201962 h -0.00155 l -0.03359,-0.045476 a 0.11143949,0.12937476 0 0 0 -0.088885,-0.051677 z" />
  </g>
</svg>
